<?xml version="1.0" encoding="utf-8"?>
<!-- Generator: Adobe Illustrator 23.1.0, SVG Export Plug-In . SVG Version: 6.00 Build 0)  -->
<svg version="1.1" id="Layer_1" xmlns="http://www.w3.org/2000/svg" xmlns:xlink="http://www.w3.org/1999/xlink" x="0px" y="0px"
	 viewBox="0 0 50 30" style="enable-background:new 0 0 50 30;" xml:space="preserve">
<style type="text/css">
	.st0{fill:none;stroke:#5C5C60;stroke-miterlimit:10;}
</style>
<path class="st0" d="M12.5,12.1c1.2-6.6,7-11.5,13.9-11.5C32.9,0.6,38.3,5,40,11c0,0,0,0,0,0"/>
<path class="st0" d="M15.2,13.2c-1.9-1.1-2.7-1.1-2.7-1.1c-0.3,0-0.5,0-0.8,0c-4.3,0-8,2.8-9.2,6.7c-0.3,0.9-0.5,2-0.5,3
	c0,3.1,1.4,5.8,3.7,7.6h12"/>
<path class="st0" d="M28.6,18.8c0.7-4.5,4.7-8,9.4-8c0.7,0,1.3,0.1,1.9,0.2c0,0,0,0,0,0c3.9,0.8,6.9,3.9,7.5,7.8
	c0.1,0.5,0.1,1,0.1,1.6c0,4.2-2.7,7.8-6.5,9.1"/>
<path class="st0" d="M41.3,29.4H35H17.7h-12C3.4,27.6,2,24.9,2,21.8c0-1,0.2-2.1,0.5-3"/>
</svg>
